<?xml version="1.0" encoding="UTF-8"?>
<svg id="Capa_2" data-name="Capa 2" xmlns="http://www.w3.org/2000/svg" viewBox="0 0 1900.5 336.87">
  <defs>
    <style>
      .cls-1, .cls-2 {
        fill: #682121;
      }

      .cls-3 {
        fill: #d2cfcf;
      }

      .cls-3, .cls-2, .cls-4 {
        stroke: #000;
      }

      .cls-3, .cls-2, .cls-4, .cls-5 {
        stroke-miterlimit: 10;
      }

      .cls-4, .cls-5 {
        fill: #fff;
      }

      .cls-5 {
        stroke: #fff;
      }
    </style>
  </defs>
  <path class="cls-1" d="m0,229.12s10.28,5.26,17.34,0c7.06-5.26,12.48-57.82,12.48-57.82h57.31s-3.08,10.51-11.22,10.51-32.35,1.04-32.35,1.04c0,0-6.96.28-8.32,10.79s-4.26,37.81-4.26,37.81h60.34s14.41.29,15.76-8.91,5.42-55.19,5.42-55.19h57s-.07,14.45-9.55,14.45-29.82-1.31-29.82-1.31c0,0-8.13,3.94-8.13,11.83s-.77,39.13-.77,39.13h72.94l2.62-64.09h50.37s7.67,0,7.67-5.26v-48.94s0-7.57-14.91-7.57h-20.05s-11.13-1.31-11.13,9.2v39.42h-10.84v-52.56s-2.71-10.51,10.84-10.51h33.17s12.92.08,12.92-8.5v-42.22s2.71-7.1-10.84-7.1h-25.69s-6.84-1.31-6.84,13.14v34.16h-9.49V20.2h45.19s9.47-3.6,7.9-12.31-2.93-7.4-11.07-7.4S6.32.42,6.32.42C6.32.42,0-4.85,0,22.13v207Z"/>
  <path class="cls-1" d="m207.47,187.07s-1.36-10.51,8.13-10.51h32.69s7.42-1.31,7.02,5.26,0,39.1,0,39.1c0,0,2.31,10.83-8.53,10.83h-39.38l.07-44.68Z"/>
  <path class="cls-5" d="m29.82,156.85h9.03s5.36,2.63,6.3-8.54,3.65-29.56,3.65-29.56c0,0-5.42-6.57,14.91-6.57h20.33l14.91-14.45h-58l-11.13,59.13Z"/>
  <path class="cls-5" d="m110.26,156.85h9.03s5.36,2.63,6.3-8.54,3.65-29.56,3.65-29.56c0,0-5.42-6.57,14.91-6.57h20.33l14.91-14.45h-58l-11.13,59.13Z"/>
  <path class="cls-5" d="m41.13,80.64h9.03s5.36,2.63,6.3-8.54c.94-11.17,3.65-29.56,3.65-29.56,0,0-5.42-6.57,14.91-6.57h20.33l14.91-14.45h-58l-11.13,59.13Z"/>
  <path class="cls-5" d="m118.4,80.64h9.03s5.36,2.63,6.3-8.54,3.65-29.56,3.65-29.56c0,0-5.42-6.57,14.91-6.57h20.33l14.91-14.45h-58l-11.13,59.13Z"/>
  <path class="cls-3" d="m457.59,199.56l-69.9-68.98s23.61-14.45,27.4-32.85c0,0,7.28-31.27-7.35-46.51,0,0-18.69-21.82-40.38-21.82h-63.78l.75,5.91v164.25s-4.07,5.26,6.78,6.57,33.15,0,33.15,0c0,0,9.42-3.28,0-6.57l-9.42-3.28V43.85h21.69s24.4,6.57,25.76,23.65c1.36,17.08,1.36,34.33,0,37.53s-8.13,20.28-21.69,20.28l-6.36,2.11-.42,3.15s54.66,74.75,75.45,76.14h35.68s4.26-2.55-7.35-7.15Z"/>
  <path class="cls-3" d="m489.36,33.34v173.37s-1.14-.07,12.31,0c13.45.07,72.41,0,72.41,0,0,0,14.23-6.29,0-11.65l-52.19-1.42s-7-1.53-5.53-17.19l-.52-56.41h51.42s12.92-6.55-.63-13.12l-48.8-1.31-1.36-60.44,50.16,1.31s22.83-6.57-1.46-13.14h-75.8Z"/>
  <path class="cls-3" d="m635.48,33.34v173.37l33.58.03s15.5-5.22-4.83-13.1v-70.96h47.44s23.04-7.59,0-15.62l-44.73-1.46v-59.13l54.98-.95s22.44-7.4,0-13.73l-86.44,1.55Z"/>
  <ellipse class="cls-3" cx="846.55" cy="120.06" rx="102.35" ry="93.29"/>
  <ellipse class="cls-4" cx="845.19" cy="120.72" rx="68.46" ry="78.18"/>
  <path class="cls-3" d="m1132.1,201.89l-69.9-68.98s23.61-14.45,27.4-32.85c0,0,7.28-31.27-7.35-46.51,0,0-18.69-21.82-40.38-21.82h-63.78l.75,5.91v164.25s-4.07,5.26,6.78,6.57,33.15,0,33.15,0c0,0,9.42-3.28,0-6.57l-9.42-3.28V46.18h21.69s24.4,6.57,25.76,23.65,1.36,34.33,0,37.53-8.13,20.28-21.69,20.28l-6.36,2.11-.42,3.15s54.66,74.75,75.45,76.14h35.68s4.26-2.55-7.35-7.15Z"/>
  <path class="cls-3" d="m1177,31.73l-15.28,173.74h26.83s15.85-2.63-2.1-10.51l8.56-88.91s7.38-7.02,8.73,2.18,50.92,97.24,50.92,97.24h16.27l46.68-98.55s9.49-11.83,10.84,0,7.02,98.55,7.02,98.55h42.5s5.14-7.88-5.25-10.51h-5.25l-19.94-163.23h-16.27l-60.79,126.72-12.52,1.04-58.4-127.75h-22.56Z"/>
  <path class="cls-3" d="m1468.08,34.65l-63.34,170.82h31.67s6.29-5.21,0-7.86l-4.93-2.65,23.04-55.19h42.02l27.83,65.7h39.36s1.65-10.03-5.5-12.64c-.61-.22-1.29-.39-2.04-.5-9.49-1.31-5.42,1.31-5.42,1.31l-62.07-158.99h-20.62Z"/>
  <polyline class="cls-4" points="1458.72 125.09 1476.67 86.44 1493.05 125.74"/>
  <line class="cls-4" x1="1458.72" y1="125.09" x2="1493.05" y2="125.74"/>
  <path class="cls-2" d="m1591.43,194.96s-16.27,11.83,2.71,11.83l113.87,1.31s28.47-23.65,12.2-23.65h-79.08l-.9-6.57s108.45-44.68,67.78-128.77c0,0-18.98-26.28-78.62-19.71,0,0-32.53,3.94-29.82,17.08,0,0,1.25,9.71,14.58,10.47.54.03,1.1.05,1.69.05l20.33-11.83h18.98s14.91,5.26,17.62,24.97c0,0,6.44,32.48-7.06,49.93-.35.45-.71.88-1.08,1.31l-73.2,73.58Z"/>
  <path class="cls-2" d="m1754.38,34.65h120.69v10.53s-70.21,106.71-60.34,151.24c0,0-29.32,20.88-45.65,9.05,0,0,55.51-139.28,66.36-145.85l-86.76-2.63s-11.63-17.08,5.71-22.34Z"/>
</svg>